:SAMPLES-PER-SECOND 30
:FULLY-SPECIFIED
:DEGREES
17
root  82.1416 40.266 -1.90013 -178.847 -85.2188 175.888
RightUpLeg  1.29922 -9.01644 -6.33728
RightLeg  5.16758 -4.35887 3.88376
RightFoot  -4.97457 -0.221307 3.37425
RightToes  0.00048216 0.542163 -0.142577
Spine  4.43931 0.330246 2.89934
Spine1  4.38567 0.923345 -2.44055
HEad  8.41846 2.64382 -2.00461
LeftShoulder1  1.45385 -2.19591 -18.8446
LeftArm  -28.6696 9.98163 -6.3397
LeftForeArm  6.99936 -9.01797 0.957906
LeftHand  -0.25398 0.0180481 5.50724
RightShoulder  1.08705 1.26305 16.0832
RightArm  -21.0178 -3.35108 7.03154
RightForeArm  -4.42872 11.1015 4.59409
RightHand  -2.23166 7.35895 -20.5312
LeftUpLeg  0.0783397 5.15778 1.0451
LeftLeg  7.96692 15.0219 -1.49544
LeftFoot  -8.89912 0.0496245 0.192749
LeftToes  1.06249e-005 4.65856e-005 -8.18498e-006
18
root  82.0041 40.2389 -1.74233 -178.64 -84.9301 175.387
RightUpLeg  1.89362 -9.29193 -6.8913
RightLeg  5.13956 -3.66469 3.92542
RightFoot  -5.73441 -0.283282 4.9792
RightToes  0.00048216 0.542163 -0.142577
Spine  4.85518 0.403879 2.86247
Spine1  4.2259 0.916907 -2.08691
HEad  10.0683 3.20755 -2.65462
LeftShoulder1  1.73724 -2.65293 -21.7468
LeftArm  -28.8819 11.1692 -7.54442
LeftForeArm  9.41579 -11.1528 0.580384
LeftHand  -0.25398 0.0180481 5.50724
RightShoulder  1.34449 2.03622 17.6826
RightArm  -19.2359 -5.45581 9.05507
RightForeArm  -5.61957 15.6568 4.95066
RightHand  -2.26582 7.32491 -20.8846
LeftUpLeg  0.466088 5.40711 0.761442
LeftLeg  8.53513 15.3683 -1.30246
LeftFoot  -10.1892 0.0579628 0.277355
LeftToes  1.06249e-005 4.65856e-005 -8.18498e-006
19
root  81.8464 40.201 -1.57461 179.635 -84.9286 176.781
RightUpLeg  2.3911 -9.63922 -7.26745
RightLeg  5.51459 -3.34318 3.905
RightFoot  -6.28492 -0.316696 6.19304
RightToes  0.00048216 0.542163 -0.142577
Spine  4.8304 0.49514 3.19715
Spine1  4.78579 1.02645 -2.10321
HEad  11.3603 2.90704 -2.87574
LeftShoulder1  2.0604 -3.29371 -23.958
LeftArm  -29.1319 11.7351 -9.9844
LeftForeArm  11.3965 -11.8754 0.387375
LeftHand  -0.25398 0.0180481 5.50724
RightShoulder  1.65259 2.73119 20.0816
RightArm  -17.2987 -7.85584 10.9688
RightForeArm  -6.36954 20.1387 5.04812
RightHand  -2.30883 7.43009 -21.0996
LeftUpLeg  0.904822 5.78916 0.740676
LeftLeg  9.02857 14.9779 -1.21247
LeftFoot  -11.0421 0.0668629 -0.239843
LeftToes  1.06249e-005 4.65856e-005 -8.18498e-006
20
root  81.6945 40.1317 -1.40441 175.681 -85.0596 -179.543
RightUpLeg  2.3089 -10.3665 -7.23252
RightLeg  6.86199 -2.58839 3.52418
RightFoot  -6.96064 -0.290939 6.3412
RightToes  0.00048216 0.542163 -0.142577
Spine  4.65492 0.523108 3.70144
Spine1  5.69225 1.08692 -2.24555
HEad  12.2447 2.28561 -2.87237
LeftShoulder1  2.40391 -3.95318 -26.0123
LeftArm  -29.0845 11.8316 -13.2672
LeftForeArm  11.2326 -11.4114 0.41709
LeftHand  -0.25398 0.0180481 5.50724
RightShoulder  2.05407 3.4976 23.1206
RightArm  -15.8841 -9.98129 12.5655
RightForeArm  -5.52805 23.8244 5.34946
RightHand  -2.29741 7.39216 -21.0582
LeftUpLeg  1.12008 6.48801 1.05788
LeftLeg  9.78797 13.9784 -1.20293
LeftFoot  -11.4248 0.0679752 -0.992029
LeftToes  1.06249e-005 4.65856e-005 -8.18498e-006
21
root  81.5735 40.0052 -1.24278 173.741 -84.8548 -177.936
RightUpLeg  1.03395 -12.4717 -7.01003
RightLeg  10.2062 -0.0257459 2.45222
RightFoot  -7.66962 -0.232718 5.63597
RightToes  0.00048216 0.542163 -0.142577
Spine  4.19842 0.632286 3.79284
Spine1  7.63833 1.19898 -2.39561
HEad  12.3915 1.95489 -2.82317
LeftShoulder1  2.69852 -4.41851 -27.8693
LeftArm  -28.8292 11.0271 -17.3717
LeftForeArm  9.00734 -9.58256 0.568384
LeftHand  -0.25398 0.0180481 5.50724
RightShoulder  2.49506 4.22014 26.2146
RightArm  -15.2311 -11.1737 14.5208
RightForeArm  -3.44514 26.1478 5.79126
RightHand  -2.17963 7.03055 -20.5714
LeftUpLeg  1.16818 7.51305 1.33779
LeftLeg  10.9758 13.061 -1.30544
LeftFoot  -11.75 0.0660097 -1.29785
LeftToes  1.06249e-005 4.65856e-005 -8.18498e-006
22
root  81.4837 39.8402 -1.09808 176.897 -84.0708 178.363
RightUpLeg  -1.60851 -14.3351 -6.90312
RightLeg  15.8446 2.15024 0.863779
RightFoot  -7.53461 -0.225945 5.25329
RightToes  0.00048216 0.542163 -0.142577
Spine  5.52613 1.02773 2.58087
Spine1  7.52238 1.33919 -1.57968
HEad  12.9624 2.04031 -3.09067
LeftShoulder1  3.3043 -5.34315 -31.2182
LeftArm  -26.964 10.2947 -19.7516
LeftForeArm  6.06655 -6.47625 0.366153
LeftHand  -0.25398 0.0180481 5.50724
RightShoulder  3.04103 5.07124 29.4808
RightArm  -13.5793 -12.2214 16.0096
RightForeArm  -1.51586 27.123 5.9218
RightHand  -2.01565 6.47982 -19.9267
LeftUpLeg  1.39185 8.59493 1.18463
LeftLeg  12.2737 12.7436 -1.45997
LeftFoot  -12.4157 0.0632323 -1.2073
LeftToes  1.06249e-005 4.65856e-005 -8.18498e-006
23
root  81.3955 39.685 -0.969753 -178.587 -82.921 173.262
RightUpLeg  -5.17181 -11.9272 -7.15072
RightLeg  22.6899 -0.444431 -0.491755
RightFoot  -6.14487 -0.317813 6.02771
RightToes  0.00048216 0.542163 -0.142577
Spine  8.04259 1.3599 0.892068
Spine1  5.97691 1.35973 -0.609298
HEad  13.5092 2.54335 -3.43279
LeftShoulder1  4.11425 -6.4375 -35.2572
LeftArm  -23.9512 10.031 -20.8424
LeftForeArm  4.03941 -3.26408 -0.247398
LeftHand  -0.25398 0.0180481 5.50724
RightShoulder  3.58646 5.85604 32.3735
RightArm  -11.5233 -12.9441 18.3042
RightForeArm  0.364594 26.5131 5.67611
RightHand  -1.93589 6.18486 -19.6323
LeftUpLeg  1.74791 9.40414 0.63761
LeftLeg  13.3966 13.0185 -1.41
LeftFoot  -13.4106 0.0574902 -1.25732
LeftToes  1.06249e-005 4.65856e-005 -8.18498e-006
24
root  81.2622 39.5753 -0.854983 -176.717 -81.8914 171.14
RightUpLeg  -9.00946 -9.86697 -7.27103
RightLeg  28.8262 -2.37718 -1.62018
RightFoot  -4.42926 -0.466575 7.23109
RightToes  0.00048216 0.542163 -0.142577
Spine  8.64613 1.24549 0.256271
Spine1  6.91769 1.27633 -0.981907
HEad  13.0146 3.42261 -3.34317
LeftShoulder1  4.92684 -7.62122 -38.1148
LeftArm  -22.0849 9.47385 -22.6089
LeftForeArm  4.10751 -1.17804 -0.73538
LeftHand  -0.25398 0.0180481 5.50724
RightShoulder  4.04411 6.50745 34.4454
RightArm  -10.4829 -12.6601 22.8461
RightForeArm  1.92466 23.9844 5.06966
RightHand  -1.89968 6.25947 -19.1623
LeftUpLeg  1.88675 9.80018 0.10585
LeftLeg  14.3014 13.5859 -1.04932
LeftFoot  -14.4066 0.0455879 -1.5254
LeftToes  1.06249e-005 4.65856e-005 -8.18498e-006
25
root  81.0489 39.5309 -0.759101 -177.602 -81.2712 172.168
RightUpLeg  -12.3935 -9.0255 -6.75059
RightLeg  32.202 -1.98705 -1.58323
RightFoot  -3.39963 -0.528633 7.2815
RightToes  0.00048216 0.542163 -0.142577
Spine  8.56098 0.725116 0.437672
Spine1  8.15599 0.98486 -1.93959
HEad  12.6352 4.77966 -3.04502
LeftShoulder1  5.65134 -8.62168 -40.2855
LeftArm  -21.8763 9.199 -24.8287
LeftForeArm  5.92008 -1.07208 -0.856342
LeftHand  -0.25398 0.0180481 5.50724
RightShoulder  4.40404 6.97634 36.0335
RightArm  -10.3589 -12.4068 28.229
RightForeArm  3.51858 20.3254 4.66582
RightHand  -1.68423 5.86841 -17.6001
LeftUpLeg  1.92338 9.76397 -0.0745695
LeftLeg  14.7413 14.2118 -0.688364
LeftFoot  -15.0885 0.0338592 -1.733
LeftToes  1.06249e-005 4.65856e-005 -8.18498e-006
26
root  80.7576 39.54 -0.694871 -179.617 -80.9585 174.442
RightUpLeg  -14.7525 -8.66422 -5.77269
RightLeg  31.9646 -0.751133 -0.753739
RightFoot  -2.92614 -0.487145 6.34208
RightToes  0.00048216 0.542163 -0.142577
Spine  9.87918 0.285762 0.146847
Spine1  6.78845 0.453274 -1.67058
HEad  13.3343 6.09911 -3.03641
LeftShoulder1  6.51286 -9.5006 -43.571
LeftArm  -21.9325 9.68289 -25.8993
LeftForeArm  7.61345 -2.36225 -0.999923
LeftHand  -0.25398 0.0180481 5.50724
RightShoulder  4.75962 7.37164 37.7323
RightArm  -10.5517 -13.6316 32.136
RightForeArm  6.31782 16.8873 4.91712
RightHand  -1.35293 4.63905 -15.9386
LeftUpLeg  2.22289 9.37473 0.0603847
LeftLeg  14.5983 14.8187 -0.61646
LeftFoot  -15.4474 0.0269771 -1.83126
LeftToes  1.06249e-005 4.65856e-005 -8.18498e-006
27
root  80.4086 39.564 -0.665879 178.22 -80.7882 176.876
RightUpLeg  -16.0421 -8.47631 -4.66223
RightLeg  28.5848 -0.644026 -0.591706
RightFoot  -2.52837 -0.471524 5.88576
RightToes  0.00048216 0.542163 -0.142577
Spine  10.2121 -0.16078 -0.232305
Spine1  7.17224 -0.155092 -1.0912
HEad  12.9742 6.90757 -3.07723
LeftShoulder1  6.96748 -9.82644 -45.5473
LeftArm  -22.0091 8.77157 -28.2701
LeftForeArm  9.30206 -3.47286 -1.24401
LeftHand  -0.25398 0.0180481 5.50724
RightShoulder  5.00896 7.72011 38.557
RightArm  -10.6369 -14.7374 36.2909
RightForeArm  10.0491 14.1053 5.26984
RightHand  -1.25047 3.97093 -15.7513
LeftUpLeg  2.68627 8.89437 0.322571
LeftLeg  14.2638 15.3359 -0.67589
LeftFoot  -15.6733 0.0246633 -1.83309
LeftToes  1.06249e-005 4.65856e-005 -8.18498e-006
28
root  80.005 39.5819 -0.660967 175.754 -80.7779 179.793
RightUpLeg  -16.6431 -9.04079 -3.36424
RightLeg  23.1342 -1.71024 -1.05102
RightFoot  -2.04608 -0.499257 5.9637
RightToes  0.00048216 0.542163 -0.142577
Spine  10.427 -0.511584 -0.562269
Spine1  7.52186 -0.735996 -0.204151
HEad  12.4123 7.16143 -3.25065
LeftShoulder1  7.34591 -10.1517 -46.9203
LeftArm  -20.4124 7.30094 -30.6065
LeftForeArm  12.3699 -4.15417 -2.0124
LeftHand  -0.25398 0.0180481 5.50724
RightShoulder  5.29894 8.10272 39.538
RightArm  -8.60379 -16.3509 38.8264
RightForeArm  11.9714 12.7118 5.83507
RightHand  -1.24853 4.3981 -15.1036
LeftUpLeg  2.98862 8.60026 0.662071
LeftLeg  14.0352 15.5584 -0.654283
LeftFoot  -15.8875 0.0309153 -1.6225
LeftToes  1.06249e-005 4.65856e-005 -8.18498e-006
